<?xml version="1.0" encoding="utf-8"?>
<!-- Generator: Adobe Illustrator 24.1.1, SVG Export Plug-In . SVG Version: 6.00 Build 0)  -->
<svg version="1.1" id="Capa_1" xmlns="http://www.w3.org/2000/svg" xmlns:xlink="http://www.w3.org/1999/xlink" x="0px" y="0px"
	 viewBox="0 0 850.4 850.4" style="enable-background:new 0 0 850.4 850.4;" xml:space="preserve">
<style type="text/css">
	.st0{fill:#FFFFFF;}
	.st1{fill:#BF262E;}
</style>
<g id="Circulo_LCD">
	<g>
		<circle class="st0" cx="425.2" cy="425.2" r="396.8"/>
		<path class="st1" d="M425.2,0C190.4,0,0,190.4,0,425.2s190.4,425.2,425.2,425.2S850.4,660,850.4,425.2S660,0,425.2,0z
			 M334.4,488.2h-89.3v-126h23.4v106.2h65.9V488.2z M368.4,443c2.3,5.4,5.4,10.1,9.5,14c4,4,8.8,7,14.2,9.2
			c5.5,2.2,11.5,3.2,18.1,3.2c6.5,0,12.5-1.2,18.2-3.7c5.6-2.5,10.8-6.2,15.5-11.3l15.1,14.2c-5.9,7-13.1,12.2-21.6,15.8
			c-8.5,3.6-18,5.4-28.4,5.4c-9.7,0-18.7-1.6-26.8-4.8c-8.2-3.2-15.3-7.7-21.3-13.6c-6.1-5.9-10.8-12.7-14.1-20.5
			c-3.4-7.8-5-16.4-5-25.9s1.7-18.1,5-25.9c3.4-7.8,8.1-14.6,14.2-20.5s13.3-10.4,21.4-13.6c8.2-3.2,17.1-4.8,26.8-4.8
			c10.3,0,19.7,1.8,28.3,5.3c8.5,3.5,15.7,8.8,21.6,15.8L444,395.5c-4.7-4.9-9.8-8.6-15.5-11.1c-5.6-2.5-11.7-3.7-18.2-3.7
			c-6.6,0-12.6,1.1-18.1,3.2c-5.5,2.2-10.2,5.2-14.2,9.2s-7.2,8.6-9.5,14s-3.4,11.3-3.4,17.8S366.1,437.6,368.4,443z M596.6,458.3
			c-5.8,9.5-13.8,16.8-24.2,22s-22.3,7.8-35.7,7.8h-55.3v-126h55.3c13.4,0,25.4,2.6,35.7,7.8c10.4,5.2,18.4,12.6,24.2,22
			s8.6,20.5,8.6,33.1S602.4,448.8,596.6,458.3z M559.8,387.4c-6.9-3.6-15.1-5.4-24.6-5.4h-30.4v86.4h30.4c9.5,0,17.7-1.8,24.6-5.4
			c6.9-3.6,12.3-8.6,16.2-15.1s5.8-14,5.8-22.7c0-8.9-1.9-16.5-5.8-22.9C572.1,396,566.7,391,559.8,387.4z"/>
	</g>
</g>
</svg>
